# xmcd
#
# Track frame offsets: 
#        150
#        14862
#        30173
#        57808
#        76565
#        91036
#        109000
#        122284
#        136175
#
# Disc length: 2196 seconds
#
# Revision: 0
# Processed by: cddbd v1.4PL0 Copyright (c) Steve Scherf et al.
# Submitted via: ExactAudioCopy v0.95a3
#
DISCID=58089209
DTITLE=Paradise Blue - Trouble In Paradise
DYEAR=1998
DGENRE=Blues
TTITLE0=Someone New
TTITLE1=I Got Love
TTITLE2=Disarray
TTITLE3=Falling To The Dust
TTITLE4=Too Wild To Hold
TTITLE5=Bad Girl Blues
TTITLE6=Rising Sun
TTITLE7=Tumblin' Dice
TTITLE8=In The Dark
EXTD=
EXTT0=
EXTT1=
EXTT2=
EXTT3=
EXTT4=
EXTT5=
EXTT6=
EXTT7=
EXTT8=
PLAYORDER=
